PathFileType	4	(X/Y/Z)	C:/Users/opensim2020/Desktop/walking_exp_matlab/subject03_walking04_straight_02.trc																																																																																																																																																							
DataRate	CameraRate	NumFrames	NumMarkers	Units	OrigDataRate	OrigDataStartFrame	OrigNumFrames																																																																																																																																																			
100	100	4	51	mm	100	1669	259																																																																																																																																																			
Frame#	Time	LFHD			RFHD			LBHD			RBHD			C7			T10			CLAV			STRN			RBAK			LSHO			LUPA			LELB			LFRM			LWRA			LWRB			LFIN			RSHO			RUPA			RELB			RFRM			RWRA			RWRB			RFIN			LASI			RASI			LPSI			RPSI			LTHI			LKNE			LTIB			LANK			LHEE			LTOE			RTHI			RKNE			RTIB			RANK			RHEE			RTOE			*39			*40			*41			*42			*43			*44			*45			*46			*47			*48			*49			*50		
		X1	Y1	Z1	X2	Y2	Z2	X3	Y3	Z3	X4	Y4	Z4	X5	Y5	Z5	X6	Y6	Z6	X7	Y7	Z7	X8	Y8	Z8	X9	Y9	Z9	X10	Y10	Z10	X11	Y11	Z11	X12	Y12	Z12	X13	Y13	Z13	X14	Y14	Z14	X15	Y15	Z15	X16	Y16	Z16	X17	Y17	Z17	X18	Y18	Z18	X19	Y19	Z19	X20	Y20	Z20	X21	Y21	Z21	X22	Y22	Z22	X23	Y23	Z23	X24	Y24	Z24	X25	Y25	Z25	X26	Y26	Z26	X27	Y27	Z27	X28	Y28	Z28	X29	Y29	Z29	X30	Y30	Z30	X31	Y31	Z31	X32	Y32	Z32	X33	Y33	Z33	X34	Y34	Z34	X35	Y35	Z35	X36	Y36	Z36	X37	Y37	Z37	X38	Y38	Z38	X39	Y39	Z39	X40	Y40	Z40	X41	Y41	Z41	X42	Y42	Z42	X43	Y43	Z43	X44	Y44	Z44	X45	Y45	Z45	X46	Y46	Z46	X47	Y47	Z47	X48	Y48	Z48	X49	Y49	Z49	X50	Y50	Z50	X51	Y51	Z51
																																																																																																																																																										
130	1.29	-179.20734	1611.06543	-1630.07813	-197.49472	1611.88501	-1497.71277	-308.11447	1570.19653	-1642.61328	-321.87268	1571.39526	-1512.08704	-348.03613	1408.70166	-1588.31934	-377.82169	1093.14966	-1596.07776	-227.35768	1331.42456	-1580.13696	-180.97382	1167.95435	-1590.13586	-407.871	1226.88953	-1503.71973	-260.74194	1372.97412	-1737.22791	-231.78343	1184.46313	-1815.18994	-187.93016	1070.67615	-1827.64478	-101.87795	976.77307	-1811.20679	-25.84562	895.83948	-1763.46228	-41.95282	880.24664	-1814.05627	22.95905	833.54779	-1796.67493	-286.72565	1348.6571	-1423.14307	-306.50009	1122.39148	-1362.84631	-302.88251	1008.76849	-1353.797	-306.8085	871.51837	-1354.49487	-290.36691	772.82446	-1391.1853	-323.41626	772.18372	-1347.40027	-314.37903	697.98993	-1360.37756	-209.15404	926.05859	-1713.16968	-204.85837	936.39191	-1472.91785	-370.02856	950.45459	-1657.52234	-367.53259	961.02753	-1509.07361	-310.39499	630.22754	-1747.00134	-350.99142	454.74857	-1718.02686	-493.69434	310.42346	-1714.34851	-620.84027	145.10774	-1670.7572	-670.90326	139.04143	-1632.6604	-517.83521	33.2332	-1641.54553	-208.02388	645.42316	-1433.18494	-147.51994	475.80881	-1476.88757	-150.72321	286.06906	-1472.49109	-130.52257	71.56282	-1520.75281	-172.2663	40.08948	-1574.31555	12.11848	38.39475	-1535.26843	NaN	NaN	NaN	NaN	NaN	NaN	NaN	NaN	NaN	NaN	NaN	NaN	NaN	NaN	NaN	NaN	NaN	NaN	NaN	NaN	NaN	NaN	NaN	NaN	NaN	NaN	NaN	NaN	NaN	NaN	NaN	NaN	NaN	NaN	NaN	NaN
131	1.3	-168.16435	1612.62244	-1629.1554	-186.45816	1613.29822	-1496.80432	-297.27441	1572.57666	-1641.94714	-311.07346	1573.56787	-1511.35474	-337.32144	1410.24707	-1587.41992	-366.54645	1094.76062	-1596.07507	-216.54895	1333.47815	-1579.42334	-169.79131	1170.10815	-1589.35876	-396.60907	1228.29004	-1502.88904	-250.32642	1375.30847	-1736.41772	-222.23572	1186.33264	-1813.77673	-179.5323	1071.96985	-1825.73706	-95.11803	976.24341	-1810.01306	-20.73097	893.55292	-1762.95142	-37.35963	878.37915	-1813.54834	26.51057	830.31555	-1796.54175	-275.94904	1350.7926	-1422.46594	-294.55521	1124.56763	-1362.11121	-290.33575	1010.98126	-1353.24158	-293.71902	873.80127	-1353.68665	-276.60306	775.15894	-1390.24915	-309.90057	774.38593	-1346.49451	-300.5592	699.97644	-1359.48364	-197.15373	927.50452	-1712.12415	-193.25623	939.43591	-1472.14331	-357.82919	952.00452	-1657.23242	-356.05151	963.5423	-1508.93652	-295.38055	630.39447	-1747.13757	-333.10608	454.24954	-1720.05383	-479.88303	313.49258	-1715.37512	-610.63904	151.96495	-1670.01929	-660.10693	149.32025	-1631.36829	-516.4718	33.57417	-1641.34717	-198.02777	647.21826	-1431.99829	-140.24396	477.00601	-1475.59021	-147.64337	286.30551	-1471.53503	-130.74648	71.72554	-1520.7301	-172.37621	40.06378	-1574.07104	12.15108	38.25241	-1535.27417	NaN	NaN	NaN	NaN	NaN	NaN	NaN	NaN	NaN	NaN	NaN	NaN	NaN	NaN	NaN	NaN	NaN	NaN	NaN	NaN	NaN	NaN	NaN	NaN	NaN	NaN	NaN	NaN	NaN	NaN	NaN	NaN	NaN	NaN	NaN	NaN
132	1.31	-157.20699	1614.06604	-1628.25403	-175.50824	1614.50269	-1495.94128	-286.59024	1574.93372	-1641.3512	-300.31232	1575.64087	-1510.64038	-326.87152	1411.8866	-1586.66675	-355.45633	1096.26062	-1595.77417	-205.85118	1335.34351	-1578.77991	-158.51912	1172.17151	-1588.7522	-385.14258	1229.79431	-1502.40076	-240.15004	1377.63831	-1735.53455	-212.69861	1188.28662	-1812.29724	-171.26288	1073.26038	-1823.68604	-88.91046	975.69287	-1808.8042	-15.93534	891.07141	-1762.51685	-33.1205	876.50684	-1813.14355	29.66441	826.67749	-1796.45862	-265.13602	1352.99561	-1421.90613	-282.69516	1126.89331	-1361.23853	-277.81323	1013.36182	-1352.50598	-280.21912	876.271	-1352.91638	-263.26779	777.53088	-1389.6521	-295.86935	776.70911	-1345.52539	-286.55988	702.29358	-1358.6344	-185.36482	929.15302	-1710.17383	-181.80891	942.11804	-1471.10535	-345.94528	953.75531	-1656.75208	-344.50763	965.85883	-1508.55286	-280.08063	630.55701	-1747.60095	-314.41513	453.62711	-1722.12024	-464.64246	316.43393	-1716.44934	-599.25635	158.85789	-1670.07629	-647.68152	159.65089	-1630.36572	-515.60309	32.8275	-1640.08362	-188.52296	648.70581	-1430.72986	-133.86816	477.65128	-1474.08704	-144.84624	286.495	-1470.72375	-130.58174	71.8365	-1521.0553	-172.41251	40.13156	-1573.87952	12.25209	38.124	-1535.18384	NaN	NaN	NaN	NaN	NaN	NaN	NaN	NaN	NaN	NaN	NaN	NaN	NaN	NaN	NaN	NaN	NaN	NaN	NaN	NaN	NaN	NaN	NaN	NaN	NaN	NaN	NaN	NaN	NaN	NaN	NaN	NaN	NaN	NaN	NaN	NaN
133	1.32	-146.2429	1615.32935	-1627.39429	-164.81108	1615.49121	-1495.05078	-275.79388	1577.05237	-1640.46216	-289.68741	1577.48303	-1510.07629	-316.29745	1413.0155	-1585.83313	-344.30881	1097.60181	-1595.06421	-195.25964	1337.09473	-1578.13049	-147.26419	1174.08044	-1588.17358	-373.79895	1231.36072	-1501.3717	-230.01363	1379.7832	-1734.65027	-203.13129	1190.18408	-1810.86597	-163.22955	1074.52246	-1821.79004	-82.88518	975.10779	-1807.7666	-11.47542	888.48212	-1762.24255	-29.40171	874.57794	-1812.85303	32.10922	822.7016	-1796.43945	-254.16121	1355.19946	-1421.46729	-270.93054	1129.19739	-1360.25696	-265.31857	1015.75781	-1351.60742	-266.71481	878.67737	-1351.92358	-248.69116	780.25433	-1388.82434	-281.61673	779.02814	-1344.49207	-271.7749	704.51971	-1357.75818	-173.6412	930.90564	-1708.4917	-170.54198	944.30341	-1470.02246	-334.33539	955.45618	-1656.04553	-332.96478	967.90906	-1507.86304	-264.65445	630.47955	-1748.1156	-295.30469	452.85468	-1723.98108	-448.34665	319.21069	-1717.32349	-586.8056	165.32016	-1671.11218	-633.66486	169.86977	-1630.25671	-514.04626	32.8521	-1639.88013	-179.76357	649.79944	-1430.00269	-128.26878	477.94147	-1472.72253	-141.66307	286.66495	-1470.06934	-130.52881	71.90426	-1520.83008	-172.31718	40.21181	-1573.83301	12.46554	37.98284	-1535.22534	NaN	NaN	NaN	NaN	NaN	NaN	NaN	NaN	NaN	NaN	NaN	NaN	NaN	NaN	NaN	NaN	NaN	NaN	NaN	NaN	NaN	NaN	NaN	NaN	NaN	NaN	NaN	NaN	NaN	NaN	NaN	NaN	NaN	NaN	NaN	NaN
